<svg width="32" height="32" viewBox="0 0 32 32" fill="none" xmlns="http://www.w3.org/2000/svg">
    <circle cx="16" cy="16" r="14" fill="white" />
    <path
        d="M16 2C13.2311 2 10.5243 2.82109 8.22202 4.35943C5.91973 5.89776 4.12532 8.08427 3.06569 10.6424C2.00607 13.2006 1.72882 16.0155 2.26901 18.7313C2.80921 21.447 4.14258 23.9416 6.10051 25.8995C8.05845 27.8574 10.553 29.1908 13.2687 29.731C15.9845 30.2712 18.7994 29.9939 21.3576 28.9343C23.9157 27.8747 26.1022 26.0803 27.6406 23.778C29.1789 21.4757 30 18.7689 30 16C29.9929 12.2892 28.5156 8.73233 25.8916 6.10836C23.2677 3.4844 19.7108 2.00712 16 2ZM22.6635 13.55L14.775 21.0885C14.5711 21.2803 14.3011 21.3863 14.0212 21.3846C13.8843 21.3866 13.7484 21.3614 13.6213 21.3106C13.4943 21.2598 13.3785 21.1843 13.2808 21.0885L9.33654 17.3192C9.22714 17.2238 9.13817 17.1072 9.07498 16.9765C9.01179 16.8458 8.97567 16.7037 8.96881 16.5586C8.96195 16.4136 8.98448 16.2687 9.03505 16.1326C9.08562 15.9965 9.16319 15.8721 9.26309 15.7667C9.36299 15.6614 9.48316 15.5773 9.61637 15.5196C9.74959 15.4619 9.8931 15.4317 10.0383 15.4308C10.1835 15.43 10.3273 15.4585 10.4612 15.5147C10.5951 15.5709 10.7162 15.6535 10.8173 15.7577L14.0212 18.8135L21.1827 11.9885C21.3921 11.8058 21.664 11.7111 21.9416 11.7242C22.2192 11.7374 22.4809 11.8573 22.6721 12.0589C22.8633 12.2606 22.9692 12.5283 22.9676 12.8062C22.966 13.0841 22.857 13.3506 22.6635 13.55Z"
        fill="#FF9912" />
</svg>
