<svg width="61" height="61" viewBox="0 0 61 61" fill="none" xmlns="http://www.w3.org/2000/svg">
    <defs>
        <linearGradient id="paint0_linear_520_1925" x1="41.0253" y1="14.5535" x2="24.3473"
            y2="48.8225" gradientUnits="userSpaceOnUse">
            <stop offset="0.182844" stop-color="#FFE600" />
            <stop offset="0.980542" stop-color="#F09000" />
        </linearGradient>
        <linearGradient id="paint1_linear_520_1925" x1="21.3031" y1="7.7262" x2="47.1786"
            y2="69.878" gradientUnits="userSpaceOnUse">
            <stop stop-color="#FFE600" />
            <stop offset="1" stop-color="#9C8D00" />
        </linearGradient>
        <linearGradient id="paint2_linear_520_1925" x1="52.8379" y1="7.99084" x2="8.04817"
            y2="60.4917" gradientUnits="userSpaceOnUse">
            <stop stop-color="#FFE600" />
            <stop offset="1" stop-color="#AA9900" />
        </linearGradient>
    </defs>
    <path
        d="M30.6893 49.0145C41.0229 49.0145 49.4 40.6374 49.4 30.3038C49.4 19.9701 41.0229 11.593 30.6893 11.593C20.3556 11.593 11.9785 19.9701 11.9785 30.3038C11.9785 40.6374 20.3556 49.0145 30.6893 49.0145Z"
        fill="url(#paint0_linear_520_1925)" stroke="url(#paint1_linear_520_1925)"
        stroke-width="0.670844" />
    <path fill-rule="evenodd" clip-rule="evenodd"
        d="M30.6892 0.115723C29.7831 0.115723 29.0485 0.850267 29.0485 1.75637V7.00645C29.0485 7.91256 29.7831 8.64711 30.6892 8.64711C31.5953 8.64711 32.3299 7.91256 32.3299 7.00645V1.75637C32.3299 0.850267 31.5953 0.115723 30.6892 0.115723ZM30.6891 51.9603C29.783 51.9603 29.0485 52.6948 29.0485 53.6009V58.851C29.0485 59.7571 29.783 60.4917 30.6891 60.4917C31.5952 60.4917 32.3298 59.7571 32.3298 58.851V53.6009C32.3298 52.6948 31.5952 51.9603 30.6891 51.9603ZM43.542 4.76066C43.9951 3.97595 44.9985 3.70709 45.7832 4.16014C46.5679 4.6132 46.8367 5.6166 46.3837 6.40131L43.7587 10.948C43.3056 11.7327 42.3022 12.0016 41.5175 11.5485C40.7328 11.0955 40.4639 10.0921 40.917 9.30737L43.542 4.76066ZM19.8609 49.0588C19.0761 48.6058 18.0727 48.8746 17.6197 49.6593L14.9946 54.2061C14.5416 54.9908 14.8105 55.9942 15.5952 56.4472C16.3799 56.9003 17.3833 56.6314 17.8363 55.8467L20.4614 51.3C20.9144 50.5153 20.6456 49.5119 19.8609 49.0588ZM54.5916 14.6092C55.3763 14.1561 56.3797 14.425 56.8327 15.2097C57.2858 15.9944 57.0169 16.9978 56.2322 17.4508L51.6855 20.0759C50.9008 20.5289 49.8974 20.2601 49.4444 19.4754C48.9913 18.6907 49.2602 17.6873 50.0449 17.2342L54.5916 14.6092ZM11.934 41.132C11.4809 40.3473 10.4775 40.0784 9.69282 40.5314L5.14611 43.1565C4.3614 43.6095 4.09254 44.6129 4.54559 45.3977C4.99865 46.1824 6.00205 46.4512 6.78676 45.9982L11.3335 43.3731C12.1182 42.9201 12.387 41.9167 11.934 41.132ZM59.2365 28.663C60.1426 28.663 60.8772 29.3976 60.8772 30.3037C60.8772 31.2098 60.1426 31.9443 59.2365 31.9443H53.9865C53.0803 31.9443 52.3458 31.2098 52.3458 30.3037C52.3458 29.3976 53.0803 28.663 53.9865 28.663H59.2365ZM9.0326 30.3036C9.0326 29.3975 8.29806 28.663 7.39195 28.663H2.14187C1.23576 28.663 0.501221 29.3975 0.501221 30.3036C0.501221 31.2097 1.23576 31.9443 2.14187 31.9443H7.39195C8.29806 31.9443 9.0326 31.2097 9.0326 30.3036ZM56.2322 43.1565C57.017 43.6095 57.2858 44.6129 56.8328 45.3976C56.3797 46.1824 55.3763 46.4512 54.5916 45.9982L50.0449 43.3731C49.2602 42.9201 48.9913 41.9167 49.4444 41.132C49.8974 40.3472 50.9008 40.0784 51.6855 40.5314L56.2322 43.1565ZM11.934 19.4754C12.3871 18.6907 12.1182 17.6873 11.3335 17.2342L6.78682 14.6092C6.00211 14.1561 4.99871 14.425 4.54565 15.2097C4.0926 15.9944 4.36146 16.9978 5.14617 17.4508L9.69288 20.0759C10.4776 20.5289 11.481 20.2601 11.934 19.4754ZM46.3837 54.2061C46.8367 54.9908 46.5679 55.9942 45.7831 56.4472C44.9984 56.9003 43.995 56.6314 43.542 55.8467L40.9169 51.3C40.4639 50.5153 40.7327 49.5119 41.5175 49.0588C42.3022 48.6058 43.3056 48.8746 43.7586 49.6594L46.3837 54.2061ZM19.8609 11.5485C20.6457 11.0954 20.9145 10.092 20.4615 9.30729L17.8364 4.76059C17.3834 3.97588 16.38 3.70701 15.5953 4.16007C14.8105 4.61312 14.5417 5.61653 14.9947 6.40124L17.6198 10.9479C18.0728 11.7327 19.0762 12.0015 19.8609 11.5485Z"
        fill="url(#paint2_linear_520_1925)" />
</svg>
