<svg width="86" height="64" viewBox="0 0 86 64" fill="none" xmlns="http://www.w3.org/2000/svg">
    <defs>
        <linearGradient id="paint0_linear_520_1963" x1="57.8722" y1="22.8586" x2="45.4911"
            y2="62.5873" gradientUnits="userSpaceOnUse">
            <stop stop-color="#FFEFB8" />
            <stop offset="1" stop-color="#FFD600" />
        </linearGradient>
        <linearGradient id="paint1_linear_520_1963" x1="24.338" y1="-4.64636" x2="69.7577"
            y2="72.648" gradientUnits="userSpaceOnUse">
            <stop stop-color="#FFF2AF" />
            <stop offset="1" stop-color="#CEBA00" />
        </linearGradient>
        <linearGradient id="paint2_linear_520_1963" x1="14.9814" y1="8.11043" x2="6.30174"
            y2="22.4682" gradientUnits="userSpaceOnUse">
            <stop stop-color="#FFF59F" />
            <stop offset="1" stop-color="#EDD500" />
        </linearGradient>
        <linearGradient id="paint3_linear_520_1963" x1="4.00393" y1="0.0603034" x2="19.8762"
            y2="29.8499" gradientUnits="userSpaceOnUse">
            <stop stop-color="#FFF6A6" />
            <stop offset="1" stop-color="#D1BC00" />
        </linearGradient>
        <linearGradient id="paint4_linear_520_1963" x1="80.0533" y1="29.202" x2="74.6287"
            y2="38.4768" gradientUnits="userSpaceOnUse">
            <stop stop-color="#FFF59F" />
            <stop offset="1" stop-color="#EDD500" />
        </linearGradient>
        <linearGradient id="paint5_linear_520_1963" x1="72.8493" y1="24.0908" x2="82.7393"
            y2="43.2761" gradientUnits="userSpaceOnUse">
            <stop stop-color="#FFF6A6" />
            <stop offset="1" stop-color="#D1BC00" />
        </linearGradient>
    </defs>
    <mask id="path-1-outside-1_520_1963" maskUnits="userSpaceOnUse" x="25.8125" y="3.25305"
        width="54" height="61" fill="black">
        <rect fill="white" x="25.8125" y="3.25305" width="54" height="61" />
        <path fill-rule="evenodd" clip-rule="evenodd"
            d="M78.132 52.2604C77.4434 52.3094 76.7482 52.3343 76.0472 52.3343C59.9773 52.3343 46.9501 39.2526 46.9501 23.1156C46.9501 15.926 49.536 9.34294 53.8248 4.25305C38.728 5.32631 26.8125 17.9648 26.8125 33.3978C26.8125 49.5348 39.8397 62.6165 55.9096 62.6165C64.8198 62.6165 72.7946 58.5947 78.132 52.2604Z" />
    </mask>
    <path fill-rule="evenodd" clip-rule="evenodd"
        d="M78.132 52.2604C77.4434 52.3094 76.7482 52.3343 76.0472 52.3343C59.9773 52.3343 46.9501 39.2526 46.9501 23.1156C46.9501 15.926 49.536 9.34294 53.8248 4.25305C38.728 5.32631 26.8125 17.9648 26.8125 33.3978C26.8125 49.5348 39.8397 62.6165 55.9096 62.6165C64.8198 62.6165 72.7946 58.5947 78.132 52.2604Z"
        fill="url(#paint0_linear_520_1963)" />
    <path
        d="M78.132 52.2604L78.645 52.6927L79.668 51.4787L78.0845 51.5913L78.132 52.2604ZM53.8248 4.25305L54.3378 4.68532L55.3608 3.47132L53.7773 3.5839L53.8248 4.25305ZM78.0845 51.5913C77.4117 51.6391 76.7323 51.6634 76.0472 51.6634V53.0051C76.7641 53.0051 77.4752 52.9796 78.1796 52.9296L78.0845 51.5913ZM76.0472 51.6634C60.3505 51.6634 47.6209 38.8848 47.6209 23.1156H46.2793C46.2793 39.6205 59.6042 53.0051 76.0472 53.0051V51.6634ZM47.6209 23.1156C47.6209 16.0898 50.1473 9.65854 54.3378 4.68532L53.3118 3.82078C48.9247 9.02734 46.2793 15.7623 46.2793 23.1156H47.6209ZM27.4833 33.3978C27.4833 18.3169 39.1265 5.97051 53.8724 4.92221L53.7773 3.5839C38.3294 4.68211 26.1417 17.6126 26.1417 33.3978H27.4833ZM55.9096 61.9456C40.2129 61.9456 27.4833 49.167 27.4833 33.3978H26.1417C26.1417 49.9027 39.4666 63.2873 55.9096 63.2873V61.9456ZM77.619 51.8281C72.4033 58.0181 64.6132 61.9456 55.9096 61.9456V63.2873C65.0265 63.2873 73.186 59.1714 78.645 52.6927L77.619 51.8281Z"
        fill="url(#paint1_linear_520_1963)" mask="url(#path-1-outside-1_520_1963)" />
    <path
        d="M13.6551 2.25431C13.0021 0.894274 11.106 0.89427 10.453 2.2543L8.25811 6.82573C8.09404 7.16745 7.77938 7.39988 7.42054 7.45348L2.51254 8.18654C1.03984 8.4065 0.477148 10.2473 1.52207 11.2943L5.07353 14.8526C5.33719 15.1168 5.45963 15.5003 5.39659 15.8781L4.5582 20.9026C4.31291 22.3726 5.82302 23.539 7.14977 22.8221L11.5396 20.4498C11.862 20.2756 12.2461 20.2756 12.5685 20.4498L16.9583 22.8221C18.2851 23.539 19.7952 22.3726 19.5499 20.9026L18.7115 15.8781C18.6485 15.5003 18.7709 15.1168 19.0346 14.8526L22.586 11.2943C23.631 10.2473 23.0683 8.4065 21.5956 8.18654L16.6876 7.45348C16.3287 7.39988 16.0141 7.16745 15.85 6.82573L13.6551 2.25431Z"
        fill="url(#paint2_linear_520_1963)" stroke="url(#paint3_linear_520_1963)"
        stroke-width="0.670844" />
    <path
        d="M73.4736 33.5732L73.7071 33.3324L73.4736 33.5732C73.6183 33.7134 73.6838 33.9149 73.6499 34.1119L73.0997 37.3021C72.9186 38.3521 74.0249 39.1439 74.9646 38.6527L77.8454 37.1465C78.0249 37.0526 78.2396 37.0526 78.4191 37.1465L81.2999 38.6527C82.2395 39.1439 83.3459 38.3521 83.1648 37.3021L82.6146 34.1119C82.5806 33.9149 82.6462 33.7134 82.7909 33.5732L85.1215 31.3139C85.8875 30.5714 85.4619 29.2811 84.4093 29.129L81.1884 28.6636C80.9874 28.6345 80.8145 28.5091 80.7254 28.3294L80.4249 28.4785L80.7254 28.3294L79.2849 25.4269C78.813 24.4761 77.4514 24.4761 76.9795 25.4269L75.5391 28.3294C75.4499 28.5091 75.2771 28.6345 75.076 28.6636L71.8552 29.129C70.8026 29.2811 70.377 30.5714 71.143 31.3139L73.4736 33.5732Z"
        fill="url(#paint4_linear_520_1963)" stroke="url(#paint5_linear_520_1963)"
        stroke-width="0.670844" />
</svg>
