<svg width="97" height="63" viewBox="0 0 97 63" fill="none" xmlns="http://www.w3.org/2000/svg">
    <defs>
        <filter id="filter0_bd_520_1973" x="0.955244" y="0.786434" width="95.4757" height="61.8805"
            filterUnits="userSpaceOnUse" color-interpolation-filters="sRGB">
            <feFlood flood-opacity="0" result="BackgroundImageFix" />
            <feGaussianBlur in="BackgroundImageFix" stdDeviation="1.67711" />
            <feComposite in2="SourceAlpha" operator="in" result="effect1_backgroundBlur_520_1973" />
            <feColorMatrix in="SourceAlpha" type="matrix"
                values="0 0 0 0 0 0 0 0 0 0 0 0 0 0 0 0 0 0 127 0" result="hardAlpha" />
            <feOffset dy="1.34169" />
            <feGaussianBlur stdDeviation="2.51566" />
            <feComposite in2="hardAlpha" operator="out" />
            <feColorMatrix type="matrix" values="0 0 0 0 0 0 0 0 0 0 0 0 0 0 0 0 0 0 0.1 0" />
            <feBlend mode="normal" in2="effect1_backgroundBlur_520_1973"
                result="effect2_dropShadow_520_1973" />
            <feBlend mode="normal" in="SourceGraphic" in2="effect2_dropShadow_520_1973"
                result="shape" />
        </filter>
        <linearGradient id="paint0_linear_520_1973" x1="32.7877" y1="4.93648" x2="53.0103"
            y2="55.8337" gradientUnits="userSpaceOnUse">
            <stop stop-color="white" />
            <stop offset="0.708333" stop-color="#9DDCFF" stop-opacity="0.69" />
        </linearGradient>
        <linearGradient id="paint1_linear_520_1973" x1="45.9665" y1="-12.3322" x2="73.9145"
            y2="76.2835" gradientUnits="userSpaceOnUse">
            <stop stop-color="white" />
            <stop offset="0.713542" stop-color="#85C6EC" stop-opacity="0.71" />
        </linearGradient>
    </defs>
    <g filter="url(#filter0_bd_520_1973)">
        <mask id="path-1-outside-1_520_1973" maskUnits="userSpaceOnUse" x="5.65747" y="4.14697"
            width="86" height="53" fill="black">
            <rect fill="white" x="5.65747" y="4.14697" width="86" height="53" />
            <path fill-rule="evenodd" clip-rule="evenodd"
                d="M67.3292 28.2958C67.3292 29.1039 67.2878 29.9023 67.207 30.689C69.701 28.5215 72.9582 27.2094 76.5219 27.2094C84.3681 27.2094 90.7287 33.57 90.7287 41.4163C90.7287 49.2625 84.3681 55.6231 76.5219 55.6231L21.2973 55.6232C21.2923 55.6232 21.2872 55.6232 21.2822 55.6232C21.2772 55.6232 21.2721 55.6232 21.2671 55.6232H21.1986V55.6229C13.1601 55.5779 6.65747 49.0476 6.65747 40.9984C6.65747 32.9789 13.1124 26.4669 21.1101 26.3747C22.0865 14.4887 32.0425 5.14697 44.1803 5.14697C56.9651 5.14697 67.3292 15.5111 67.3292 28.2958Z" />
        </mask>
        <path fill-rule="evenodd" clip-rule="evenodd"
            d="M67.3292 28.2958C67.3292 29.1039 67.2878 29.9023 67.207 30.689C69.701 28.5215 72.9582 27.2094 76.5219 27.2094C84.3681 27.2094 90.7287 33.57 90.7287 41.4163C90.7287 49.2625 84.3681 55.6231 76.5219 55.6231L21.2973 55.6232C21.2923 55.6232 21.2872 55.6232 21.2822 55.6232C21.2772 55.6232 21.2721 55.6232 21.2671 55.6232H21.1986V55.6229C13.1601 55.5779 6.65747 49.0476 6.65747 40.9984C6.65747 32.9789 13.1124 26.4669 21.1101 26.3747C22.0865 14.4887 32.0425 5.14697 44.1803 5.14697C56.9651 5.14697 67.3292 15.5111 67.3292 28.2958Z"
            fill="url(#paint0_linear_520_1973)" shape-rendering="crispEdges" />
        <path
            d="M67.207 30.689L66.5396 30.6205L66.3663 32.3084L67.647 31.1953L67.207 30.689ZM76.5219 55.6231V54.9523V55.6231ZM21.2973 55.6232V56.294V55.6232ZM21.1986 55.6232H20.5278V56.294H21.1986V55.6232ZM21.1986 55.6229H21.8695V54.9558L21.2024 54.9521L21.1986 55.6229ZM21.1101 26.3747L21.1178 27.0455L21.7286 27.0385L21.7786 26.4296L21.1101 26.3747ZM67.8743 30.7575C67.9575 29.9481 68 29.1268 68 28.2958H66.6583C66.6583 29.081 66.6181 29.8565 66.5396 30.6205L67.8743 30.7575ZM76.5219 26.5386C72.7904 26.5386 69.3783 27.9131 66.7669 30.1827L67.647 31.1953C70.0236 29.1299 73.126 27.8802 76.5219 27.8802V26.5386ZM91.3996 41.4163C91.3996 33.1995 84.7386 26.5386 76.5219 26.5386V27.8802C83.9976 27.8802 90.0579 33.9405 90.0579 41.4163H91.3996ZM76.5219 56.294C84.7386 56.294 91.3996 49.633 91.3996 41.4163H90.0579C90.0579 48.892 83.9976 54.9523 76.5219 54.9523V56.294ZM76.5219 54.9523L21.2973 54.9523V56.294L76.5219 56.294V54.9523ZM21.2822 56.294C21.285 56.294 21.2878 56.294 21.2903 56.294C21.2928 56.294 21.2951 56.294 21.2973 56.294V54.9523C21.2945 54.9523 21.2917 54.9523 21.2892 54.9523C21.2867 54.9523 21.2844 54.9523 21.2822 54.9523V56.294ZM21.2671 56.294C21.2693 56.294 21.2716 56.294 21.2741 56.294C21.2766 56.294 21.2794 56.294 21.2822 56.294V54.9523C21.28 54.9523 21.2777 54.9523 21.2752 54.9523C21.2727 54.9523 21.2699 54.9523 21.2671 54.9523V56.294ZM21.2671 54.9523H21.1986V56.294H21.2671V54.9523ZM21.8695 55.6232V55.6229H20.5278V55.6232H21.8695ZM5.98663 40.9984C5.98663 49.4168 12.7875 56.2467 21.1949 56.2938L21.2024 54.9521C13.5326 54.9092 7.32831 48.6783 7.32831 40.9984H5.98663ZM21.1023 25.7039C12.7376 25.8004 5.98663 32.611 5.98663 40.9984H7.32831C7.32831 33.3468 13.4871 27.1335 21.1178 27.0455L21.1023 25.7039ZM44.1803 4.47613C31.6904 4.47613 21.4463 14.0887 20.4415 26.3198L21.7786 26.4296C22.7268 14.8888 32.3946 5.81782 44.1803 5.81782V4.47613ZM68 28.2958C68 15.1406 57.3356 4.47613 44.1803 4.47613V5.81782C56.5946 5.81782 66.6583 15.8816 66.6583 28.2958H68Z"
            fill="url(#paint1_linear_520_1973)" mask="url(#path-1-outside-1_520_1973)" />
    </g>
</svg>
