<svg width="96" height="63" viewBox="0 0 96 63" fill="none" xmlns="http://www.w3.org/2000/svg">
    <defs>
        <filter id="filter0_bd_520_1932" x="0.0826855" y="0.786434" width="95.4757" height="61.8805"
            filterUnits="userSpaceOnUse" color-interpolation-filters="sRGB">
            <feFlood flood-opacity="0" result="BackgroundImageFix" />
            <feGaussianBlur in="BackgroundImageFix" stdDeviation="1.67711" />
            <feComposite in2="SourceAlpha" operator="in" result="effect1_backgroundBlur_520_1932" />
            <feColorMatrix in="SourceAlpha" type="matrix"
                values="0 0 0 0 0 0 0 0 0 0 0 0 0 0 0 0 0 0 127 0" result="hardAlpha" />
            <feOffset dy="1.34169" />
            <feGaussianBlur stdDeviation="2.51566" />
            <feComposite in2="hardAlpha" operator="out" />
            <feColorMatrix type="matrix" values="0 0 0 0 0 0 0 0 0 0 0 0 0 0 0 0 0 0 0.1 0" />
            <feBlend mode="normal" in2="effect1_backgroundBlur_520_1932"
                result="effect2_dropShadow_520_1932" />
            <feBlend mode="normal" in="SourceGraphic" in2="effect2_dropShadow_520_1932"
                result="shape" />
        </filter>
        <linearGradient id="paint0_linear_520_1932" x1="32.4593" y1="10.346" x2="59.1253"
            y2="53.7831" gradientUnits="userSpaceOnUse">
            <stop stop-color="#508ABF" />
            <stop offset="1" stop-color="#2073A2" stop-opacity="0.53" />
        </linearGradient>
        <linearGradient id="paint1_linear_520_1932" x1="59.6284" y1="72.3991" x2="33.4655"
            y2="-1.39375" gradientUnits="userSpaceOnUse">
            <stop stop-color="#4195C6" />
            <stop offset="1" stop-color="#5E8398" stop-opacity="0.56" />
            <stop offset="1" stop-color="#AFE2FF" stop-opacity="0.5" />
        </linearGradient>
    </defs>
    <g filter="url(#filter0_bd_520_1932)">
        <mask id="path-1-outside-1_520_1932" maskUnits="userSpaceOnUse" x="4.78491" y="4.14697"
            width="86" height="53" fill="black">
            <rect fill="white" x="4.78491" y="4.14697" width="86" height="53" />
            <path fill-rule="evenodd" clip-rule="evenodd"
                d="M66.4566 28.2958C66.4566 29.1039 66.4152 29.9023 66.3344 30.689C68.8284 28.5215 72.0856 27.2094 75.6493 27.2094C83.4955 27.2094 89.8562 33.57 89.8562 41.4163C89.8562 49.2625 83.4955 55.6231 75.6493 55.6231L20.4247 55.6232C20.4197 55.6232 20.4147 55.6232 20.4096 55.6232C20.4046 55.6232 20.3996 55.6232 20.3945 55.6232H20.3261V55.6229C12.2875 55.5779 5.78491 49.0476 5.78491 40.9984C5.78491 32.9789 12.2398 26.4669 20.2375 26.3747C21.214 14.4887 31.1699 5.14697 43.3078 5.14697C56.0925 5.14697 66.4566 15.5111 66.4566 28.2958Z" />
        </mask>
        <path fill-rule="evenodd" clip-rule="evenodd"
            d="M66.4566 28.2958C66.4566 29.1039 66.4152 29.9023 66.3344 30.689C68.8284 28.5215 72.0856 27.2094 75.6493 27.2094C83.4955 27.2094 89.8562 33.57 89.8562 41.4163C89.8562 49.2625 83.4955 55.6231 75.6493 55.6231L20.4247 55.6232C20.4197 55.6232 20.4147 55.6232 20.4096 55.6232C20.4046 55.6232 20.3996 55.6232 20.3945 55.6232H20.3261V55.6229C12.2875 55.5779 5.78491 49.0476 5.78491 40.9984C5.78491 32.9789 12.2398 26.4669 20.2375 26.3747C21.214 14.4887 31.1699 5.14697 43.3078 5.14697C56.0925 5.14697 66.4566 15.5111 66.4566 28.2958Z"
            fill="url(#paint0_linear_520_1932)" shape-rendering="crispEdges" />
        <path
            d="M66.3344 30.689L65.6671 30.6205L65.4937 32.3084L66.7745 31.1953L66.3344 30.689ZM75.6493 55.6231V54.9523V55.6231ZM20.4247 55.6232V56.294V55.6232ZM20.3261 55.6232H19.6552V56.294H20.3261V55.6232ZM20.3261 55.6229H20.9969V54.9558L20.3298 54.9521L20.3261 55.6229ZM20.2375 26.3747L20.2452 27.0455L20.8561 27.0385L20.9061 26.4296L20.2375 26.3747ZM67.0018 30.7575C67.0849 29.9481 67.1275 29.1268 67.1275 28.2958H65.7858C65.7858 29.081 65.7456 29.8565 65.6671 30.6205L67.0018 30.7575ZM75.6493 26.5386C71.9178 26.5386 68.5058 27.9131 65.8944 30.1827L66.7745 31.1953C69.1511 29.1299 72.2534 27.8802 75.6493 27.8802V26.5386ZM90.527 41.4163C90.527 33.1995 83.866 26.5386 75.6493 26.5386V27.8802C83.125 27.8802 89.1853 33.9405 89.1853 41.4163H90.527ZM75.6493 56.294C83.866 56.294 90.527 49.633 90.527 41.4163H89.1853C89.1853 48.892 83.125 54.9523 75.6493 54.9523V56.294ZM75.6493 54.9523L20.4247 54.9523V56.294L75.6493 56.294V54.9523ZM20.4096 56.294C20.4125 56.294 20.4152 56.294 20.4177 56.294C20.4203 56.294 20.4225 56.294 20.4247 56.294V54.9523C20.4219 54.9523 20.4192 54.9523 20.4167 54.9523C20.4141 54.9523 20.4119 54.9523 20.4096 54.9523V56.294ZM20.3945 56.294C20.3968 56.294 20.399 56.294 20.4016 56.294C20.4041 56.294 20.4068 56.294 20.4096 56.294V54.9523C20.4074 54.9523 20.4052 54.9523 20.4026 54.9523C20.4001 54.9523 20.3974 54.9523 20.3945 54.9523V56.294ZM20.3945 54.9523H20.3261V56.294H20.3945V54.9523ZM20.9969 55.6232V55.6229H19.6552V55.6232H20.9969ZM5.11407 40.9984C5.11407 49.4168 11.9149 56.2467 20.3223 56.2938L20.3298 54.9521C12.6601 54.9092 6.45576 48.6783 6.45576 40.9984H5.11407ZM20.2298 25.7039C11.865 25.8004 5.11407 32.611 5.11407 40.9984H6.45576C6.45576 33.3468 12.6146 27.1335 20.2452 27.0455L20.2298 25.7039ZM43.3078 4.47613C30.8178 4.47613 20.5737 14.0887 19.5689 26.3198L20.9061 26.4296C21.8542 14.8888 31.522 5.81782 43.3078 5.81782V4.47613ZM67.1275 28.2958C67.1275 15.1406 56.463 4.47613 43.3078 4.47613V5.81782C55.722 5.81782 65.7858 15.8816 65.7858 28.2958H67.1275Z"
            fill="url(#paint1_linear_520_1932)" mask="url(#path-1-outside-1_520_1932)" />
    </g>
</svg>
