<svg width="24" height="24" viewBox="0 0 24 24" fill="none" xmlns="http://www.w3.org/2000/svg">
<path d="M19.5 13.5C19.5 6.75 12 1.5 12 1.5C12 1.5 4.5 6.75 4.5 13.5C4.5 15.4891 5.29018 17.3968 6.6967 18.8033C8.10322 20.2098 10.0109 21 12 21C13.9891 21 15.8968 20.2098 17.3033 18.8033C18.7098 17.3968 19.5 15.4891 19.5 13.5Z" fill="#92BDFF"/>
<path d="M19.5 13.5C19.5 6.75 12 1.5 12 1.5C12 1.5 4.5 6.75 4.5 13.5C4.5 15.4891 5.29018 17.3968 6.6967 18.8033C8.10322 20.2098 10.0109 21 12 21C13.9891 21 15.8968 20.2098 17.3033 18.8033C18.7098 17.3968 19.5 15.4891 19.5 13.5Z" stroke="#090A0A" stroke-width="1.5" stroke-linecap="round" stroke-linejoin="round"/>
<path d="M12.7598 17.925C13.6764 17.7696 14.5223 17.3335 15.1805 16.6769C15.8388 16.0203 16.277 15.1756 16.4348 14.2593" stroke="#090A0A" stroke-width="1.5" stroke-linecap="round" stroke-linejoin="round"/>
</svg>
