<svg width="16" height="16" viewBox="0 0 16 16" fill="none" xmlns="http://www.w3.org/2000/svg">
<path d="M8 15L9.64375 12.5" stroke="black" stroke-width="0.8" stroke-linecap="round" stroke-linejoin="round"/>
<path d="M6.1687 13L8.1437 10" stroke="black" stroke-width="0.8" stroke-linecap="round" stroke-linejoin="round"/>
<path d="M5.5 5.75C5.5 4.90943 5.74926 4.08774 6.21625 3.38883C6.68325 2.68992 7.34701 2.14519 8.1236 1.82351C8.90018 1.50184 9.75471 1.41768 10.5791 1.58166C11.4036 1.74565 12.1608 2.15043 12.7552 2.7448C13.3496 3.33917 13.7544 4.09645 13.9183 4.92087C14.0823 5.74529 13.9982 6.59982 13.6765 7.37641C13.3548 8.15299 12.8101 8.81675 12.1112 9.28375C11.4123 9.75074 10.5906 10 9.75 10H4.75C4.02065 10 3.32118 9.71027 2.80546 9.19455C2.28973 8.67882 2 7.97935 2 7.25C2 6.52066 2.28973 5.82118 2.80546 5.30546C3.32118 4.78973 4.02065 4.5 4.75 4.5C5.05431 4.49844 5.35663 4.54917 5.64375 4.65" stroke="black" stroke-width="0.8" stroke-linecap="round" stroke-linejoin="round"/>
</svg>
