<svg width="24" height="24" viewBox="0 0 24 24" fill="none" xmlns="http://www.w3.org/2000/svg">
<path d="M3.50629 4.46248L9.00004 20.3344C9.23442 21.0187 10.2094 21 10.425 20.3062L12.6375 13.125C12.6709 13.0076 12.7343 12.9009 12.8214 12.8154C12.9085 12.73 13.0164 12.6686 13.1344 12.6375L20.3063 10.425C21 10.2094 21.0188 9.23436 20.3344 8.99998L4.46254 3.50623C4.32919 3.45937 4.1853 3.45114 4.04748 3.4825C3.90965 3.51386 3.78349 3.58353 3.68354 3.68348C3.58359 3.78343 3.51392 3.90959 3.48256 4.04742C3.4512 4.18524 3.45943 4.32913 3.50629 4.46248Z" fill="#FF9912"/>
<path d="M3.50629 4.46248L9.00004 20.3344C9.23442 21.0187 10.2094 21 10.425 20.3062L12.6375 13.125C12.6709 13.0076 12.7343 12.9009 12.8214 12.8154C12.9085 12.73 13.0164 12.6686 13.1344 12.6375L20.3063 10.425C21 10.2094 21.0188 9.23436 20.3344 8.99998L4.46254 3.50623C4.32919 3.45937 4.1853 3.45114 4.04748 3.4825C3.90965 3.51386 3.78349 3.58353 3.68354 3.68348C3.58359 3.78343 3.51392 3.90959 3.48256 4.04742C3.4512 4.18524 3.45943 4.32913 3.50629 4.46248Z" stroke="#090A0A" stroke-width="1.5" stroke-linecap="round" stroke-linejoin="round"/>
</svg>
