<svg width="69" height="36" viewBox="0 0 69 36" fill="none" xmlns="http://www.w3.org/2000/svg">
    <defs>
        <linearGradient id="paint0_linear_520_1987" x1="0.576531" y1="12.6412" x2="5.16253"
            y2="1.71278" gradientUnits="userSpaceOnUse">
            <stop stop-color="#3981EE" />
            <stop offset="1" stop-color="#92BDFF" />
        </linearGradient>
        <linearGradient id="paint1_linear_520_1987" x1="0.576531" y1="12.6412" x2="5.16253"
            y2="1.71278" gradientUnits="userSpaceOnUse">
            <stop stop-color="#3981EE" />
            <stop offset="1" stop-color="#92BDFF" />
        </linearGradient>
        <linearGradient id="paint2_linear_520_1987" x1="0.576531" y1="12.6412" x2="5.16253"
            y2="1.71278" gradientUnits="userSpaceOnUse">
            <stop stop-color="#3981EE" />
            <stop offset="1" stop-color="#92BDFF" />
        </linearGradient>
        <linearGradient id="paint3_linear_520_1987" x1="0.576531" y1="12.6412" x2="5.16253"
            y2="1.71278" gradientUnits="userSpaceOnUse">
            <stop stop-color="#3981EE" />
            <stop offset="1" stop-color="#92BDFF" />
        </linearGradient>
        <linearGradient id="paint4_linear_520_1987" x1="0.576531" y1="12.6412" x2="5.16253"
            y2="1.71278" gradientUnits="userSpaceOnUse">
            <stop stop-color="#3981EE" />
            <stop offset="1" stop-color="#92BDFF" />
        </linearGradient>
        <linearGradient id="paint5_linear_520_1987" x1="0.576531" y1="12.6412" x2="5.16253"
            y2="1.71278" gradientUnits="userSpaceOnUse">
            <stop stop-color="#3981EE" />
            <stop offset="1" stop-color="#92BDFF" />
        </linearGradient>
        <linearGradient id="paint6_linear_520_1987" x1="0.576531" y1="12.6412" x2="5.16253"
            y2="1.71278" gradientUnits="userSpaceOnUse">
            <stop stop-color="#3981EE" />
            <stop offset="1" stop-color="#92BDFF" />
        </linearGradient>
        <linearGradient id="paint7_linear_520_1987" x1="0.576531" y1="12.6412" x2="5.16253"
            y2="1.71278" gradientUnits="userSpaceOnUse">
            <stop stop-color="#3981EE" />
            <stop offset="1" stop-color="#92BDFF" />
        </linearGradient>
    </defs>
    <rect width="5.18877" height="14.365" rx="2.59439"
        transform="matrix(0.966176 0.257884 -0.259757 0.965674 3.77954 20.7878)"
        fill="url(#paint0_linear_520_1987)" />
    <rect width="5.18877" height="14.365" rx="2.59439"
        transform="matrix(0.966176 0.257884 -0.259757 0.965674 20.5977 20.7878)"
        fill="url(#paint1_linear_520_1987)" />
    <rect width="5.18877" height="14.365" rx="2.59439"
        transform="matrix(0.966176 0.257884 -0.259757 0.965674 37.4158 20.7878)"
        fill="url(#paint2_linear_520_1987)" />
    <rect width="5.18877" height="14.365" rx="2.59439"
        transform="matrix(0.966176 0.257884 -0.259757 0.965674 54.2339 20.7878)"
        fill="url(#paint3_linear_520_1987)" />
    <rect width="5.18877" height="14.365" rx="2.59439"
        transform="matrix(0.966176 0.257884 -0.259757 0.965674 13.0061 0.107666)"
        fill="url(#paint4_linear_520_1987)" />
    <rect width="5.18877" height="14.365" rx="2.59439"
        transform="matrix(0.966176 0.257884 -0.259757 0.965674 29.8242 0.107666)"
        fill="url(#paint5_linear_520_1987)" />
    <rect width="5.18877" height="14.365" rx="2.59439"
        transform="matrix(0.966176 0.257884 -0.259757 0.965674 46.6426 0.107666)"
        fill="url(#paint6_linear_520_1987)" />
    <rect width="5.18877" height="14.365" rx="2.59439"
        transform="matrix(0.966176 0.257884 -0.259757 0.965674 63.4607 0.107666)"
        fill="url(#paint7_linear_520_1987)" />
</svg>
