<svg width="72" height="72" viewBox="0 0 72 72" fill="none" xmlns="http://www.w3.org/2000/svg">
    <defs>
        <linearGradient id="paint0_linear_552_1240" x1="61.9405" y1="6.77851" x2="11.6414"
            y2="55.8507" gradientUnits="userSpaceOnUse">
            <stop stop-color="#D6E9FF" />
            <stop offset="1" stop-color="#2898FF" />
        </linearGradient>
    </defs>
    <path fill-rule="evenodd" clip-rule="evenodd"
        d="M36.0024 0.994995C35.1796 0.994995 34.5127 1.66195 34.5127 2.48468V7.15727L31.1133 2.86394C30.6026 2.21891 29.6657 2.11003 29.0207 2.62074C28.3756 3.13146 28.2668 4.06837 28.7775 4.7134L34.5127 11.9569V14.6933L31.1133 10.3999C30.6026 9.75491 29.6656 9.64603 29.0206 10.1567C28.3756 10.6675 28.2667 11.6044 28.7774 12.2494L34.5127 19.493V32.3565L24.9793 22.8231L23.9128 13.6462C23.8178 12.8289 23.0783 12.2434 22.2611 12.3384C21.4438 12.4334 20.8583 13.1729 20.9533 13.9901L21.5854 19.4293L19.6505 17.4943L18.584 8.31737C18.489 7.50013 17.7495 6.91463 16.9323 7.0096C16.115 7.10457 15.5295 7.84406 15.6245 8.6613L16.2566 14.1005L13.3901 11.234C12.8084 10.6522 11.8651 10.6522 11.2834 11.234C10.7016 11.8158 10.7016 12.759 11.2834 13.3407L14.2189 16.2763L8.65607 15.6298C7.83884 15.5348 7.09934 16.1203 7.00437 16.9376C6.9094 17.7548 7.4949 18.4943 8.31214 18.5893L17.6128 19.6701L19.5477 21.6051L13.985 20.9586C13.1677 20.8636 12.4282 21.4491 12.3333 22.2664C12.2383 23.0836 12.8238 23.8231 13.641 23.9181L22.9416 24.9989L32.461 34.5184H18.8687L11.6254 28.7834C10.9804 28.2727 10.0435 28.3816 9.53277 29.0266C9.02205 29.6716 9.13094 30.6085 9.77597 31.1192L14.069 34.5184H11.3324L4.0892 28.7834C3.44417 28.2727 2.50725 28.3816 1.99654 29.0266C1.48582 29.6716 1.5947 30.6085 2.23973 31.1192L6.53281 34.5184H2.47895C1.65622 34.5184 0.989258 35.1853 0.989258 36.0081C0.989258 36.8308 1.65621 37.4978 2.47895 37.4978H6.6303L2.23973 40.9741C1.5947 41.4848 1.48582 42.4217 1.99654 43.0667C2.50725 43.7118 3.44417 43.8207 4.0892 43.3099L11.4299 37.4978H14.1665L9.77597 40.9741C9.13094 41.4848 9.02206 42.4217 9.53277 43.0667C10.0435 43.7118 10.9804 43.8207 11.6254 43.3099L18.9662 37.4978H32.4283L22.8177 47.1084L13.6405 48.1749C12.8233 48.2699 12.2378 49.0094 12.3328 49.8266C12.4277 50.6438 13.1672 51.2294 13.9845 51.1344L19.4239 50.5023L17.4889 52.4372L8.31172 53.5037C7.49449 53.5987 6.90898 54.3382 7.00396 55.1554C7.09893 55.9727 7.83842 56.5582 8.65566 56.4632L14.095 55.8311L11.2283 58.6978C10.6466 59.2796 10.6465 60.2228 11.2283 60.8045C11.8101 61.3863 12.7533 61.3863 13.3351 60.8045L16.2707 57.8689L15.6242 63.4317C15.5293 64.2489 16.1148 64.9884 16.932 65.0834C17.7492 65.1784 18.4887 64.5929 18.5837 63.7756L19.6646 54.475L21.5995 52.5401L20.9531 58.1029C20.8581 58.9201 21.4436 59.6596 22.2608 59.7546C23.0781 59.8496 23.8176 59.2641 23.9125 58.4468L24.9934 49.1462L34.5127 39.6269V53.2185L28.7774 60.4621C28.2667 61.1071 28.3756 62.044 29.0206 62.5547C29.6656 63.0655 30.6026 62.9566 31.1133 62.3116L34.5127 58.0182V60.7546L28.7774 67.9982C28.2667 68.6432 28.3756 69.5801 29.0206 70.0908C29.6656 70.6015 30.6026 70.4926 31.1133 69.8476L34.5127 65.5542V69.6085C34.5127 70.4312 35.1796 71.0982 36.0024 71.0982C36.8251 71.0982 37.492 70.4312 37.492 69.6085V65.4573L40.9682 69.8476C41.4789 70.4926 42.4158 70.6015 43.0608 70.0908C43.7058 69.5801 43.8147 68.6432 43.304 67.9982L37.492 60.6577V57.9213L40.9682 62.3116C41.4789 62.9566 42.4158 63.0655 43.0608 62.5547C43.7058 62.044 43.8147 61.1071 43.304 60.4621L37.492 53.1216V39.5494L46.6516 48.7089L47.7324 58.0095C47.8274 58.8267 48.5669 59.4123 49.3841 59.3173C50.2014 59.2223 50.7869 58.4828 50.6919 57.6656L50.0454 52.1028L51.9805 54.0379L53.0614 63.3383C53.1563 64.1555 53.8958 64.741 54.7131 64.6461C55.5303 64.5511 56.1158 63.8116 56.0208 62.9944L55.3744 57.4317L58.7471 60.8044C59.3288 61.3862 60.2721 61.3862 60.8538 60.8044C61.4356 60.2227 61.4356 59.2794 60.8538 58.6977L57.5498 55.3937L62.9894 56.0259C63.8067 56.1208 64.5461 55.5353 64.6411 54.7181C64.7361 53.9009 64.1506 53.1614 63.3334 53.0664L54.156 51.9999L52.2211 50.0649L57.6605 50.6971C58.4777 50.7921 59.2172 50.2065 59.3122 49.3893C59.4072 48.5721 58.8216 47.8326 58.0044 47.7376L48.8272 46.6711L39.6539 37.4978H52.4972L59.8379 43.3099C60.4829 43.8207 61.4199 43.7118 61.9306 43.0667C62.4413 42.4217 62.3324 41.4848 61.6874 40.9741L57.2968 37.4978H60.0335L67.3741 43.3099C68.0192 43.8206 68.9561 43.7117 69.4668 43.0667C69.9775 42.4217 69.8686 41.4848 69.2236 40.974L64.8331 37.4978H69.6027C70.4255 37.4978 71.0924 36.8308 71.0924 36.0081C71.0924 35.1853 70.4255 34.5184 69.6027 34.5184H64.9305L69.2236 31.1192C69.8686 30.6085 69.9775 29.6716 69.4668 29.0266C68.9561 28.3815 68.0192 28.2726 67.3741 28.7834L60.1308 34.5184H57.3943L61.6874 31.1192C62.3324 30.6085 62.4413 29.6716 61.9306 29.0266C61.4199 28.3816 60.4829 28.2727 59.8379 28.7834L52.5947 34.5184H39.6212L48.7033 25.4363L58.0038 24.3555C58.8211 24.2605 59.4066 23.521 59.3116 22.7038C59.2166 21.8865 58.4771 21.301 57.6599 21.396L52.0971 22.0425L54.0322 20.1074L63.3327 19.0265C64.1499 18.9316 64.7354 18.1921 64.6405 17.3748C64.5455 16.5576 63.806 15.9721 62.9888 16.0671L57.4261 16.7135L60.7987 13.3408C61.3805 12.7591 61.3805 11.8159 60.7987 11.2341C60.217 10.6523 59.2738 10.6523 58.692 11.2341L55.3883 14.5378L56.0204 9.09861C56.1154 8.28137 55.5299 7.54188 54.7127 7.44691C53.8954 7.35193 53.1559 7.93744 53.061 8.75467L51.9945 17.9316L50.0594 19.8667L50.6915 14.4275C50.7865 13.6103 50.2009 12.8708 49.3837 12.7758C48.5665 12.6808 47.827 13.2663 47.732 14.0836L46.6655 23.2606L37.492 32.4341V19.5899L43.304 12.2494C43.8147 11.6044 43.7058 10.6675 43.0608 10.1567C42.4158 9.64603 41.4789 9.75491 40.9682 10.3999L37.492 14.7902V12.0539L43.3041 4.7134C43.8148 4.06837 43.7059 3.13146 43.0609 2.62074C42.4158 2.11003 41.4789 2.21891 40.9682 2.86394L37.492 7.2543V2.48469C37.492 1.66195 36.8251 0.994995 36.0024 0.994995Z"
        fill="url(#paint0_linear_552_1240)" />
</svg>
