<svg width="100" height="77" viewBox="0 0 100 77" fill="none" xmlns="http://www.w3.org/2000/svg">
    <defs>
        <filter id="filter0_bd_602_3367" x="0.0826855" y="14.9427" width="95.4757" height="61.8805"
            filterUnits="userSpaceOnUse" color-interpolation-filters="sRGB">
            <feFlood flood-opacity="0" result="BackgroundImageFix" />
            <feGaussianBlur in="BackgroundImageFix" stdDeviation="1.67711" />
            <feComposite in2="SourceAlpha" operator="in" result="effect1_backgroundBlur_602_3367" />
            <feColorMatrix in="SourceAlpha" type="matrix"
                values="0 0 0 0 0 0 0 0 0 0 0 0 0 0 0 0 0 0 127 0" result="hardAlpha" />
            <feOffset dy="1.34169" />
            <feGaussianBlur stdDeviation="2.51566" />
            <feComposite in2="hardAlpha" operator="out" />
            <feColorMatrix type="matrix" values="0 0 0 0 0 0 0 0 0 0 0 0 0 0 0 0 0 0 0.1 0" />
            <feBlend mode="normal" in2="effect1_backgroundBlur_602_3367"
                result="effect2_dropShadow_602_3367" />
            <feBlend mode="normal" in="SourceGraphic" in2="effect2_dropShadow_602_3367"
                result="shape" />
        </filter>
        <linearGradient id="paint0_linear_602_3367" x1="73.0481" y1="17.169" x2="62.2292"
            y2="52.0301" gradientUnits="userSpaceOnUse">
            <stop stop-color="#FFEFB8" />
            <stop offset="1" stop-color="#FFD600" />
        </linearGradient>
        <linearGradient id="paint1_linear_602_3367" x1="43.5214" y1="-6.9482" x2="83.266"
            y2="60.9708" gradientUnits="userSpaceOnUse">
            <stop stop-color="#FFF2AF" />
            <stop offset="1" stop-color="#CEBA00" />
        </linearGradient>
        <linearGradient id="paint2_linear_602_3367" x1="34.2959" y1="5.88636" x2="28.5937"
            y2="15.6136" gradientUnits="userSpaceOnUse">
            <stop stop-color="#FFF59F" />
            <stop offset="1" stop-color="#EDD500" />
        </linearGradient>
        <linearGradient id="paint3_linear_602_3367" x1="26.7489" y1="0.519613" x2="37.147"
            y2="20.6449" gradientUnits="userSpaceOnUse">
            <stop stop-color="#FFF6A6" />
            <stop offset="1" stop-color="#D1BC00" />
        </linearGradient>
        <linearGradient id="paint4_linear_602_3367" x1="94.0923" y1="26.1874" x2="89.4371"
            y2="33.9906" gradientUnits="userSpaceOnUse">
            <stop stop-color="#FFF59F" />
            <stop offset="1" stop-color="#EDD500" />
        </linearGradient>
        <linearGradient id="paint5_linear_602_3367" x1="88.0891" y1="21.8429" x2="96.5915"
            y2="38.0132" gradientUnits="userSpaceOnUse">
            <stop stop-color="#FFF6A6" />
            <stop offset="1" stop-color="#D1BC00" />
        </linearGradient>
        <linearGradient id="paint6_linear_602_3367" x1="32.4593" y1="24.5023" x2="59.1253"
            y2="67.9394" gradientUnits="userSpaceOnUse">
            <stop stop-color="#52ACFF" />
            <stop offset="1" stop-color="#052D93" stop-opacity="0.71" />
        </linearGradient>
        <linearGradient id="paint7_linear_602_3367" x1="59.6284" y1="86.5553" x2="33.4655"
            y2="12.7625" gradientUnits="userSpaceOnUse">
            <stop stop-color="#0066FF" />
            <stop offset="1" stop-color="#00378A" stop-opacity="0.34" />
        </linearGradient>
    </defs>
    <mask id="path-1-outside-1_602_3367" maskUnits="userSpaceOnUse" x="44.7002" y="-0.144897"
        width="48" height="53" fill="black">
        <rect fill="white" x="44.7002" y="-0.144897" width="48" height="53" />
        <path fill-rule="evenodd" clip-rule="evenodd"
            d="M90.8868 42.9495C90.2805 42.9925 89.6684 43.0143 89.0512 43.0143C74.9017 43.0143 63.4313 31.5439 63.4313 17.3944C63.4313 11.0904 65.7082 5.31808 69.4844 0.855103C56.1917 1.79617 45.7002 12.878 45.7002 26.4102C45.7002 40.5597 57.1706 52.0301 71.3201 52.0301C79.1655 52.0301 86.1873 48.5037 90.8868 42.9495Z" />
    </mask>
    <path fill-rule="evenodd" clip-rule="evenodd"
        d="M90.8868 42.9495C90.2805 42.9925 89.6684 43.0143 89.0512 43.0143C74.9017 43.0143 63.4313 31.5439 63.4313 17.3944C63.4313 11.0904 65.7082 5.31808 69.4844 0.855103C56.1917 1.79617 45.7002 12.878 45.7002 26.4102C45.7002 40.5597 57.1706 52.0301 71.3201 52.0301C79.1655 52.0301 86.1873 48.5037 90.8868 42.9495Z"
        fill="url(#paint0_linear_602_3367)" />
    <path
        d="M90.8868 42.9495L91.3989 43.3829L92.4269 42.168L90.8394 42.2804L90.8868 42.9495ZM69.4844 0.855103L69.9965 1.28842L71.0245 0.0735507L69.4371 0.185934L69.4844 0.855103ZM90.8394 42.2804C90.2489 42.3222 89.6526 42.3435 89.0512 42.3435V43.6851C89.6842 43.6851 90.3121 43.6628 90.9342 43.6187L90.8394 42.2804ZM89.0512 42.3435C75.2722 42.3435 64.1021 31.1734 64.1021 17.3944H62.7604C62.7604 31.9144 74.5312 43.6851 89.0512 43.6851V42.3435ZM64.1021 17.3944C64.1021 11.2549 66.3189 5.63483 69.9965 1.28842L68.9723 0.421783C65.0974 5.00134 62.7604 10.9258 62.7604 17.3944H64.1021ZM46.371 26.4102C46.371 13.2326 56.5878 2.44065 69.5318 1.52427L69.4371 0.185934C55.7956 1.15169 45.0294 12.5234 45.0294 26.4102H46.371ZM71.3201 51.3593C57.5411 51.3593 46.371 40.1892 46.371 26.4102H45.0294C45.0294 40.9302 56.8001 52.701 71.3201 52.701V51.3593ZM90.3747 42.5162C85.7971 47.9262 78.9599 51.3593 71.3201 51.3593V52.701C79.3711 52.701 86.5774 49.0813 91.3989 43.3829L90.3747 42.5162Z"
        fill="url(#paint1_linear_602_3367)" mask="url(#path-1-outside-1_602_3367)" />
    <path
        d="M34.9858 4.97785L33.4767 1.93023C32.9884 0.943866 31.5783 0.943864 31.0899 1.93023L29.5809 4.97785C29.485 5.17159 29.2992 5.30639 29.0838 5.3376L25.7095 5.82631C24.619 5.98426 24.1804 7.32237 24.9721 8.09154L27.4137 10.4638C27.5691 10.6148 27.6398 10.8321 27.6032 11.0447L27.0268 14.3944C26.8398 15.4814 27.9834 16.3051 28.9577 15.7945L31.9757 14.213C32.1683 14.1121 32.3984 14.1121 32.591 14.213L35.609 15.7945C36.5833 16.3051 37.7269 15.4814 37.5398 14.3944L36.9635 11.0447C36.9269 10.8321 36.9975 10.6148 37.153 10.4638L39.5946 8.09154C40.3863 7.32237 39.9477 5.98426 38.8571 5.82631L35.4829 5.3376C35.2674 5.30639 35.0817 5.17159 34.9858 4.97785Z"
        fill="url(#paint2_linear_602_3367)" stroke="url(#paint3_linear_602_3367)"
        stroke-width="0.670844" />
    <path
        d="M94.7036 25.4257L93.5033 22.9585C93.0904 22.1099 91.8926 22.1099 91.4797 22.9585L90.2793 25.4257C90.2118 25.5645 90.0825 25.6584 89.9357 25.68L87.2516 26.0757C86.3218 26.2127 85.9638 27.3618 86.6258 28.0163L88.568 29.9367C88.6763 30.0438 88.7269 30.1996 88.7009 30.3533L88.2424 33.0649C88.0868 33.9849 89.0435 34.7098 89.8801 34.2637L92.2808 32.9835C92.4128 32.913 92.5701 32.913 92.7022 32.9835L95.1029 34.2637C95.9394 34.7098 96.8961 33.9849 96.7406 33.0649L96.2821 30.3533C96.2561 30.1996 96.3066 30.0438 96.4149 29.9367L98.3571 28.0163C99.0191 27.3618 98.6612 26.2127 97.7313 26.0757L95.0472 25.68C94.9004 25.6584 94.7712 25.5645 94.7036 25.4257Z"
        fill="url(#paint4_linear_602_3367)" stroke="url(#paint5_linear_602_3367)"
        stroke-width="0.670844" />
    <g filter="url(#filter0_bd_602_3367)">
        <mask id="path-5-outside-2_602_3367" maskUnits="userSpaceOnUse" x="4.78491" y="18.3032"
            width="86" height="53" fill="black">
            <rect fill="white" x="4.78491" y="18.3032" width="86" height="53" />
            <path fill-rule="evenodd" clip-rule="evenodd"
                d="M66.4566 42.4521C66.4566 43.2601 66.4152 44.0585 66.3344 44.8452C68.8284 42.6778 72.0856 41.3656 75.6493 41.3656C83.4955 41.3656 89.8562 47.7263 89.8562 55.5725C89.8562 63.4188 83.4955 69.7794 75.6493 69.7794L20.4247 69.7794C20.4197 69.7794 20.4147 69.7794 20.4096 69.7794C20.4046 69.7794 20.3996 69.7794 20.3945 69.7794H20.3261V69.7792C12.2875 69.7342 5.78491 63.2038 5.78491 55.1547C5.78491 47.1351 12.2398 40.6232 20.2375 40.531C21.214 28.645 31.1699 19.3032 43.3078 19.3032C56.0925 19.3032 66.4566 29.6673 66.4566 42.4521Z" />
        </mask>
        <path fill-rule="evenodd" clip-rule="evenodd"
            d="M66.4566 42.4521C66.4566 43.2601 66.4152 44.0585 66.3344 44.8452C68.8284 42.6778 72.0856 41.3656 75.6493 41.3656C83.4955 41.3656 89.8562 47.7263 89.8562 55.5725C89.8562 63.4188 83.4955 69.7794 75.6493 69.7794L20.4247 69.7794C20.4197 69.7794 20.4147 69.7794 20.4096 69.7794C20.4046 69.7794 20.3996 69.7794 20.3945 69.7794H20.3261V69.7792C12.2875 69.7342 5.78491 63.2038 5.78491 55.1547C5.78491 47.1351 12.2398 40.6232 20.2375 40.531C21.214 28.645 31.1699 19.3032 43.3078 19.3032C56.0925 19.3032 66.4566 29.6673 66.4566 42.4521Z"
            fill="url(#paint6_linear_602_3367)" shape-rendering="crispEdges" />
        <path
            d="M66.3344 44.8452L65.6671 44.7767L65.4937 46.4647L66.7745 45.3516L66.3344 44.8452ZM75.6493 69.7794L75.6493 69.1086H75.6493L75.6493 69.7794ZM20.4247 69.7794L20.4247 70.4502H20.4247L20.4247 69.7794ZM20.3261 69.7794H19.6552V70.4502H20.3261V69.7794ZM20.3261 69.7792H20.9969V69.1121L20.3298 69.1083L20.3261 69.7792ZM20.2375 40.531L20.2452 41.2018L20.8561 41.1947L20.9061 40.5859L20.2375 40.531ZM67.0018 44.9138C67.0849 44.1043 67.1275 43.2831 67.1275 42.4521H65.7858C65.7858 43.2372 65.7456 44.0127 65.6671 44.7767L67.0018 44.9138ZM75.6493 40.6948C71.9178 40.6948 68.5058 42.0694 65.8944 44.3389L66.7745 45.3516C69.1511 43.2861 72.2534 42.0365 75.6493 42.0365V40.6948ZM90.527 55.5725C90.527 47.3558 83.866 40.6948 75.6493 40.6948V42.0365C83.125 42.0365 89.1853 48.0968 89.1853 55.5725H90.527ZM75.6493 70.4502C83.866 70.4502 90.527 63.7893 90.527 55.5725H89.1853C89.1853 63.0483 83.125 69.1086 75.6493 69.1086V70.4502ZM75.6493 69.1086L20.4247 69.1086L20.4247 70.4502L75.6493 70.4502L75.6493 69.1086ZM20.4096 70.4503C20.4125 70.4503 20.4152 70.4503 20.4177 70.4503C20.4203 70.4502 20.4225 70.4502 20.4247 70.4502V69.1086C20.4219 69.1086 20.4192 69.1086 20.4167 69.1086C20.4141 69.1086 20.4119 69.1086 20.4096 69.1086V70.4503ZM20.3945 70.4502C20.3968 70.4502 20.399 70.4502 20.4016 70.4503C20.4041 70.4503 20.4068 70.4503 20.4096 70.4503V69.1086C20.4074 69.1086 20.4052 69.1086 20.4026 69.1086C20.4001 69.1086 20.3973 69.1086 20.3945 69.1086V70.4502ZM20.3945 69.1086H20.3261V70.4502H20.3945V69.1086ZM20.9969 69.7794V69.7792H19.6552V69.7794H20.9969ZM5.11407 55.1547C5.11407 63.5731 11.9149 70.403 20.3223 70.45L20.3298 69.1083C12.6601 69.0654 6.45576 62.8346 6.45576 55.1547H5.11407ZM20.2298 39.8602C11.865 39.9566 5.11407 46.7672 5.11407 55.1547H6.45576C6.45576 47.503 12.6146 41.2898 20.2452 41.2018L20.2298 39.8602ZM43.3078 18.6324C30.8178 18.6324 20.5737 28.2449 19.5689 40.476L20.9061 40.5859C21.8542 29.0451 31.522 19.9741 43.3078 19.9741V18.6324ZM67.1275 42.4521C67.1275 29.2968 56.463 18.6324 43.3078 18.6324V19.9741C55.722 19.9741 65.7858 30.0378 65.7858 42.4521H67.1275Z"
            fill="url(#paint7_linear_602_3367)" mask="url(#path-5-outside-2_602_3367)" />
    </g>
</svg>
