<svg width="105" height="78" viewBox="0 0 105 78" fill="none" xmlns="http://www.w3.org/2000/svg">
    <defs>
        <filter id="filter0_bd_520_1927" x="0.933027" y="15.7866" width="95.4757" height="61.8806"
            filterUnits="userSpaceOnUse" color-interpolation-filters="sRGB">
            <feFlood flood-opacity="0" result="BackgroundImageFix" />
            <feGaussianBlur in="BackgroundImageFix" stdDeviation="1.67711" />
            <feComposite in2="SourceAlpha" operator="in" result="effect1_backgroundBlur_520_1927" />
            <feColorMatrix in="SourceAlpha" type="matrix"
                values="0 0 0 0 0 0 0 0 0 0 0 0 0 0 0 0 0 0 127 0" result="hardAlpha" />
            <feOffset dy="1.34169" />
            <feGaussianBlur stdDeviation="2.51566" />
            <feComposite in2="hardAlpha" operator="out" />
            <feColorMatrix type="matrix" values="0 0 0 0 0 0 0 0 0 0 0 0 0 0 0 0 0 0 0.1 0" />
            <feBlend mode="normal" in2="effect1_backgroundBlur_520_1927"
                result="effect2_dropShadow_520_1927" />
            <feBlend mode="normal" in="SourceGraphic" in2="effect2_dropShadow_520_1927"
                result="shape" />
        </filter>
        <linearGradient id="paint0_linear_520_1927" x1="85.062" y1="14.4595" x2="68.3839"
            y2="48.7285" gradientUnits="userSpaceOnUse">
            <stop offset="0.182844" stop-color="#FFE600" />
            <stop offset="0.980542" stop-color="#F09000" />
        </linearGradient>
        <linearGradient id="paint1_linear_520_1927" x1="65.3398" y1="7.6322" x2="91.2152"
            y2="69.784" gradientUnits="userSpaceOnUse">
            <stop stop-color="#FFE600" />
            <stop offset="1" stop-color="#9C8D00" />
        </linearGradient>
        <linearGradient id="paint2_linear_520_1927" x1="96.8745" y1="7.89685" x2="52.0848"
            y2="60.3977" gradientUnits="userSpaceOnUse">
            <stop stop-color="#FFE600" />
            <stop offset="1" stop-color="#AA9900" />
        </linearGradient>
        <linearGradient id="paint3_linear_520_1927" x1="32.7655" y1="19.9366" x2="52.9881"
            y2="70.8338" gradientUnits="userSpaceOnUse">
            <stop stop-color="white" />
            <stop offset="0.708333" stop-color="#9DDCFF" stop-opacity="0.69" />
        </linearGradient>
        <linearGradient id="paint4_linear_520_1927" x1="45.9443" y1="2.6679" x2="73.8923"
            y2="91.2836" gradientUnits="userSpaceOnUse">
            <stop stop-color="white" />
            <stop offset="0.713542" stop-color="#85C6EC" stop-opacity="0.71" />
        </linearGradient>
    </defs>
    <circle cx="74.7259" cy="30.2098" r="18.7107" fill="url(#paint0_linear_520_1927)"
        stroke="url(#paint1_linear_520_1927)" stroke-width="0.670844" />
    <path fill-rule="evenodd" clip-rule="evenodd"
        d="M74.7258 0.0217285C73.8197 0.0217285 73.0852 0.756272 73.0852 1.66238V6.91246C73.0852 7.81857 73.8197 8.55311 74.7258 8.55311C75.6319 8.55311 76.3665 7.81857 76.3665 6.91246V1.66238C76.3665 0.756273 75.6319 0.0217285 74.7258 0.0217285ZM74.7258 51.8663C73.8197 51.8663 73.0851 52.6008 73.0851 53.5069V58.757C73.0851 59.6631 73.8197 60.3977 74.7258 60.3977C75.6319 60.3977 76.3664 59.6631 76.3664 58.757V53.5069C76.3664 52.6008 75.6319 51.8663 74.7258 51.8663ZM87.5786 4.66667C88.0317 3.88196 89.0351 3.6131 89.8198 4.06615C90.6045 4.5192 90.8734 5.52261 90.4203 6.30732L87.7953 10.854C87.3422 11.6387 86.3388 11.9076 85.5541 11.4545C84.7694 11.0015 84.5005 9.99808 84.9536 9.21337L87.5786 4.66667ZM63.8975 48.9648C63.1128 48.5118 62.1094 48.7806 61.6563 49.5654L59.0313 54.1121C58.5782 54.8968 58.8471 55.9002 59.6318 56.3532C60.4165 56.8063 61.4199 56.5374 61.873 55.7527L64.498 51.206C64.951 50.4213 64.6822 49.4179 63.8975 48.9648ZM98.6282 14.5152C99.4129 14.0621 100.416 14.331 100.869 15.1157C101.322 15.9004 101.054 16.9038 100.269 17.3569L95.7221 19.9819C94.9374 20.4349 93.934 20.1661 93.481 19.3814C93.0279 18.5967 93.2968 17.5933 94.0815 17.1402L98.6282 14.5152ZM55.9706 41.038C55.5176 40.2533 54.5141 39.9844 53.7294 40.4375L49.1827 43.0625C48.398 43.5155 48.1292 44.519 48.5822 45.3037C49.0353 46.0884 50.0387 46.3572 50.8234 45.9042L55.3701 43.2791C56.1548 42.8261 56.4237 41.8227 55.9706 41.038ZM103.273 28.569C104.179 28.569 104.914 29.3036 104.914 30.2097C104.914 31.1158 104.179 31.8503 103.273 31.8503H98.0231C97.117 31.8503 96.3824 31.1158 96.3824 30.2097C96.3824 29.3036 97.117 28.569 98.0231 28.569H103.273ZM53.0692 30.2096C53.0692 29.3035 52.3347 28.569 51.4286 28.569H46.1785C45.2724 28.569 44.5378 29.3035 44.5378 30.2096C44.5378 31.1157 45.2724 31.8503 46.1785 31.8503H51.4286C52.3347 31.8503 53.0692 31.1157 53.0692 30.2096ZM100.269 43.0625C101.054 43.5155 101.322 44.5189 100.869 45.3037C100.416 46.0884 99.4129 46.3572 98.6282 45.9042L94.0815 43.2791C93.2968 42.8261 93.0279 41.8227 93.481 41.038C93.9341 40.2533 94.9375 39.9844 95.7222 40.4374L100.269 43.0625ZM55.9707 19.3814C56.4237 18.5967 56.1549 17.5933 55.3701 17.1402L50.8234 14.5152C50.0387 14.0621 49.0353 14.331 48.5823 15.1157C48.1292 15.9004 48.3981 16.9038 49.1828 17.3569L53.7295 19.9819C54.5142 20.4349 55.5176 20.1661 55.9707 19.3814ZM90.4203 54.1121C90.8733 54.8968 90.6045 55.9002 89.8198 56.3532C89.0351 56.8063 88.0317 56.5374 87.5786 55.7527L84.9536 51.206C84.5005 50.4213 84.7694 49.4179 85.5541 48.9648C86.3388 48.5118 87.3422 48.7806 87.7952 49.5654L90.4203 54.1121ZM63.8976 11.4545C64.6823 11.0014 64.9511 9.99801 64.4981 9.2133L61.873 4.66659C61.42 3.88188 60.4166 3.61302 59.6319 4.06607C58.8472 4.51913 58.5783 5.52253 59.0314 6.30724L61.6564 10.8539C62.1094 11.6387 63.1129 11.9075 63.8976 11.4545Z"
        fill="url(#paint2_linear_520_1927)" />
    <g filter="url(#filter0_bd_520_1927)">
        <mask id="path-3-outside-1_520_1927" maskUnits="userSpaceOnUse" x="5.63525" y="19.1471"
            width="86" height="53" fill="black">
            <rect fill="white" x="5.63525" y="19.1471" width="86" height="53" />
            <path fill-rule="evenodd" clip-rule="evenodd"
                d="M67.307 43.2959C67.307 44.104 67.2656 44.9024 67.1848 45.6891C69.6788 43.5216 72.936 42.2095 76.4996 42.2095C84.3459 42.2095 90.7065 48.5702 90.7065 56.4164C90.7065 64.2626 84.3459 70.6233 76.4996 70.6233L21.2751 70.6233C21.27 70.6233 21.265 70.6233 21.26 70.6233C21.2549 70.6233 21.2499 70.6233 21.2449 70.6233H21.1764V70.6231C13.1378 70.5781 6.63525 64.0477 6.63525 55.9986C6.63525 47.979 13.0901 41.4671 21.0878 41.3748C22.0643 29.4889 32.0203 20.1471 44.1581 20.1471C56.9429 20.1471 67.307 30.5112 67.307 43.2959Z" />
        </mask>
        <path fill-rule="evenodd" clip-rule="evenodd"
            d="M67.307 43.2959C67.307 44.104 67.2656 44.9024 67.1848 45.6891C69.6788 43.5216 72.936 42.2095 76.4996 42.2095C84.3459 42.2095 90.7065 48.5702 90.7065 56.4164C90.7065 64.2626 84.3459 70.6233 76.4996 70.6233L21.2751 70.6233C21.27 70.6233 21.265 70.6233 21.26 70.6233C21.2549 70.6233 21.2499 70.6233 21.2449 70.6233H21.1764V70.6231C13.1378 70.5781 6.63525 64.0477 6.63525 55.9986C6.63525 47.979 13.0901 41.4671 21.0878 41.3748C22.0643 29.4889 32.0203 20.1471 44.1581 20.1471C56.9429 20.1471 67.307 30.5112 67.307 43.2959Z"
            fill="url(#paint3_linear_520_1927)" shape-rendering="crispEdges" />
        <path
            d="M67.1848 45.6891L66.5174 45.6206L66.3441 47.3085L67.6248 46.1955L67.1848 45.6891ZM76.4996 70.6233V69.9524V70.6233ZM21.2751 70.6233V71.2941V70.6233ZM21.1764 70.6233H20.5056V71.2941H21.1764V70.6233ZM21.1764 70.6231H21.8472V69.956L21.1802 69.9522L21.1764 70.6231ZM21.0878 41.3748L21.0956 42.0456L21.7064 42.0386L21.7564 41.4298L21.0878 41.3748ZM67.8521 45.7577C67.9352 44.9482 67.9778 44.1269 67.9778 43.2959H66.6361C66.6361 44.0811 66.5959 44.8566 66.5174 45.6206L67.8521 45.7577ZM76.4996 41.5387C72.7682 41.5387 69.3561 42.9133 66.7447 45.1828L67.6248 46.1955C70.0014 44.13 73.1038 42.8804 76.4996 42.8804V41.5387ZM91.3774 56.4164C91.3774 48.1997 84.7164 41.5387 76.4996 41.5387V42.8804C83.9754 42.8804 90.0357 48.9407 90.0357 56.4164H91.3774ZM76.4996 71.2941C84.7164 71.2941 91.3774 64.6331 91.3774 56.4164H90.0357C90.0357 63.8921 83.9754 69.9524 76.4996 69.9524V71.2941ZM76.4996 69.9524L21.2751 69.9524V71.2941L76.4996 71.2941V69.9524ZM21.26 71.2941C21.2628 71.2941 21.2656 71.2941 21.268 71.2941C21.2706 71.2941 21.2729 71.2941 21.2751 71.2941V69.9524C21.2723 69.9524 21.2695 69.9524 21.267 69.9524C21.2645 69.9524 21.2622 69.9524 21.26 69.9524V71.2941ZM21.2449 71.2941C21.2471 71.2941 21.2494 71.2941 21.2519 71.2941C21.2544 71.2941 21.2572 71.2941 21.26 71.2941V69.9524C21.2578 69.9524 21.2555 69.9524 21.2529 69.9524C21.2505 69.9524 21.2477 69.9524 21.2449 69.9524V71.2941ZM21.2449 69.9524H21.1764V71.2941H21.2449V69.9524ZM21.8472 70.6233V70.6231H20.5056V70.6233H21.8472ZM5.96441 55.9986C5.96441 64.4169 12.7653 71.2468 21.1726 71.2939L21.1802 69.9522C13.5104 69.9093 7.3061 63.6785 7.3061 55.9986H5.96441ZM21.0801 40.704C12.7154 40.8005 5.96441 47.6111 5.96441 55.9986H7.3061C7.3061 48.3469 13.4649 42.1336 21.0956 42.0456L21.0801 40.704ZM44.1581 19.4763C31.6682 19.4763 21.4241 29.0888 20.4192 41.3199L21.7564 41.4298C22.7046 29.8889 32.3724 20.8179 44.1581 20.8179V19.4763ZM67.9778 43.2959C67.9778 30.1407 57.3134 19.4763 44.1581 19.4763V20.8179C56.5724 20.8179 66.6361 30.8817 66.6361 43.2959H67.9778Z"
            fill="url(#paint4_linear_520_1927)" mask="url(#path-3-outside-1_520_1927)" />
    </g>
</svg>
