<svg width="24" height="24" viewBox="0 0 24 24" fill="none" xmlns="http://www.w3.org/2000/svg">
<path d="M15 13.7812V6C15.5626 6.56261 15 5.20435 15 6C14.4374 5.43739 12.7957 5.5 12 5.5C11.2044 5.5 9.56261 5.43739 9 6C9 5.20435 8.43739 6.56261 9 6V13.7812C8.19986 14.4059 7.61468 15.2648 7.32612 16.238C7.03755 17.2113 7.06 18.2503 7.39032 19.2102C7.72064 20.17 8.34236 21.0029 9.16872 21.5924C9.99509 22.182 10.9849 22.4988 12 22.4988C13.0151 22.4988 14.0049 22.182 14.8313 21.5924C15.6576 21.0029 16.2794 20.17 16.6097 19.2102C16.94 18.2503 16.9624 17.2113 16.6739 16.238C16.3853 15.2648 15.8001 14.4059 15 13.7812ZM12 19.5C11.6292 19.5 11.2666 19.39 10.9583 19.184C10.65 18.978 10.4096 18.6851 10.2677 18.3425C10.1258 17.9999 10.0887 17.6229 10.161 17.2592C10.2334 16.8955 10.412 16.5614 10.6742 16.2992C10.9364 16.0369 11.2705 15.8584 11.6342 15.786C11.9979 15.7137 12.3749 15.7508 12.7175 15.8927C13.0601 16.0346 13.353 16.275 13.559 16.5833C13.765 16.8916 13.875 17.2542 13.875 17.625C13.8725 18.1215 13.6742 18.597 13.3231 18.9481C12.972 19.2992 12.4965 19.4975 12 19.5Z" fill="#E93932"/>
<path d="M9 13.7812V4.5C9 3.70435 9.31607 2.94129 9.87868 2.37868C10.4413 1.81607 11.2044 1.5 12 1.5C12.7957 1.5 13.5587 1.81607 14.1213 2.37868C14.6839 2.94129 15 3.70435 15 4.5V9.14062V13.7812C15.8001 14.4059 16.3853 15.2648 16.6739 16.2381C16.9624 17.2113 16.94 18.2503 16.6097 19.2102C16.2794 20.1701 15.6576 21.0029 14.8313 21.5924C14.0049 22.182 13.0151 22.4989 12 22.4989C10.9849 22.4989 9.99509 22.182 9.16872 21.5924C8.34236 21.0029 7.72064 20.1701 7.39032 19.2102C7.06 18.2503 7.03755 17.2113 7.32612 16.2381C7.61468 15.2648 8.19986 14.4059 9 13.7812Z" stroke="#090A0A" stroke-width="1.5" stroke-linecap="round" stroke-linejoin="round"/>
<path d="M12 19.5C13.0355 19.5 13.875 18.6605 13.875 17.625C13.875 16.5895 13.0355 15.75 12 15.75C10.9645 15.75 10.125 16.5895 10.125 17.625C10.125 18.6605 10.9645 19.5 12 19.5Z" stroke="#090A0A" stroke-width="1.5" stroke-linecap="round" stroke-linejoin="round"/>
<path d="M12 15.75V8.25" stroke="#090A0A" stroke-width="1.5" stroke-linecap="round" stroke-linejoin="round"/>
</svg>
